<svg width="720" height="503.999" xmlns="http://www.w3.org/2000/svg">
 <symbol viewBox="-0.763 -0.763 1.526 1.525" id="New_Symbol">
  <path id="svg_1" d="m0.763,0c0,-0.421 -0.342,-0.762 -0.763,-0.762s-0.763,0.341 -0.763,0.762s0.342,0.763 0.763,0.763s0.763,-0.343 0.763,-0.763z" fill="#FFFFFF"/>
 </symbol>
 <defs>
  <linearGradient y2="0" x2="0.5" y1="1" x1="0.5" id="SVGID_1_">
   <stop stop-color="#FFFFFF" offset="0"/>
   <stop stop-color="#FBE8C7" offset="0.4712"/>
   <stop stop-color="#E3BEBB" offset="0.6991"/>
   <stop stop-color="#BC7F91" offset="1"/>
  </linearGradient>
 </defs>
 <g>
  <title>Layer 1</title>
  <rect stroke="null" transform="matrix(1,0,0,1,0,0) matrix(1,0,0,1,0,0) matrix(1,0,0,1,0,0) " id="svg_2" height="503.999" width="720" fill="url(#SVGID_1_)"/>
  <circle id="svg_3" r="71.818" cy="274.491" cx="407.987" fill="#FEF8E7"/>
  <g id="svg_4" opacity="0.4">
   <path id="svg_5" d="m689.334,253.667c-10.237,-1.44 -39.782,-12.04 -46.334,-15.667c-4.136,-2.29 -11.897,-6.43 -16.667,-5.333c4.727,-2.627 15.252,-1.084 19.018,0.001c6.169,1.777 38.562,4.521 49.316,2.072c8.145,-1.854 17.463,-5.314 23.454,-11.353c0.424,-0.427 0.793,-0.841 1.129,-1.249l0,-15.471c-16.455,19.564 -59.723,16.948 -80.75,14.32c-35,-6 -63,1 -92,23c28,-14 81,-5 107,11c10.899,6.812 47.764,18.712 65.75,12.027l0,-17.104c-8.759,4.849 -20.755,5.046 -29.916,3.757z" fill="#FEF8E7"/>
  </g>
  <g id="svg_6" opacity="0.2">
   <path id="svg_7" d="m688.113,107.381c-10.237,-1.44 -39.782,-12.04 -46.334,-15.667c-4.136,-2.29 -11.897,-6.43 -16.667,-5.333c4.727,-2.627 15.252,-1.084 19.018,0.001c6.169,1.777 38.562,4.521 49.316,2.072c8.145,-1.854 17.463,-5.314 23.454,-11.353c0.424,-0.427 0.793,-0.841 1.129,-1.249l0,-15.47c-16.455,19.564 -59.723,16.948 -80.75,14.32c-35,-6 -63,1 -92,23c28,-14 81,-5 107,11c10.899,6.812 47.764,18.712 65.75,12.027l0,-17.105c-8.758,4.849 -20.755,5.046 -29.916,3.757z" fill="#FEF8E7"/>
  </g>
  <g id="svg_8" opacity="0.2">
   <path id="svg_9" d="m719,188c-2.5,7.664 -32.999,8.667 -49.666,8c-34.667,-2 -69.335,-18.772 -103.335,-22.105c-32.666,-3.333 -62.666,9.333 -94,13.333c-11.333,1.333 -74,10 -72.666,-10.667c5.333,15.334 77.334,-10.061 90.667,-14.061c30.667,-10 53.5,-33.333 85.5,-36c27.333,-2.667 49.833,9.395 76.5,12.728c18.667,2 52.334,-2.895 67,-20.228c-0.834,0.986 -0.177,5.852 -0.196,7.136c-0.056,3.513 -0.099,14.055 -0.09,10.541c0,0 -5.38,5.989 -14.722,10.498c-10.804,5.214 -24.165,8.91 -37.324,9.492c-7.577,0.335 -39.845,-7.076 -47.334,-8.167c-12.818,-1.867 -26.815,-3.97 -39.674,-0.666c-4.381,1.125 -7.946,3.209 -11.146,6.262c6.312,-1.015 12.409,-1.533 18.859,-0.72c24.794,3.124 41.793,17.124 62.827,20.832c12.107,2.134 23.897,1.676 36.003,0.292c10.643,-1.217 26.1,-1.441 32.796,-10.417" fill="#FEF8E7"/>
  </g>
  <g id="svg_10">
   <g id="svg_11" opacity="0.5">
    <path id="svg_12" d="m167.169,283.271c-49.4,1.918 -123.078,-9.977 -165.135,-38.309l0,20.829c0.765,0.591 1.641,1.194 2.647,1.821c11.768,7.341 26.377,10.412 40.489,13.991c8.44,2.142 19.697,4.894 28.833,5.831c11.047,1.135 23.504,0.575 34.427,-0.496c-14.873,4.014 -36.695,4.367 -54.057,4.496c-15.03,0.113 -30.326,-0.625 -44.956,-3.375c-3.142,-0.592 -5.525,-1.479 -7.383,-1.893l0,15.117c40.749,7.162 98.223,-2.014 138.725,-2.014c35.653,0 72.627,-2 108.28,-1c17.166,0 47.538,-2 63.383,3c-2.64,-27.998 -122.804,-18.998 -145.253,-17.998z" fill="#FEF8E7"/>
   </g>
   <g id="svg_13" opacity="0.3">
    <path id="svg_14" d="m174.949,227.206c-34.266,4 -55.479,3 -86.482,-10c-24.476,-11 -44.057,-23 -78.323,-23c-3.145,-0.128 -6.242,-0.086 -9.58,0.136l0,12.58c-0.544,0.417 0.855,-0.274 1.874,-0.767c3.903,-1.888 18.694,-0.126 23.302,0.341c8.633,0.875 16.97,2.678 24.362,5.573c13.75,5.384 22.701,15.19 39.753,16.624c-12.941,3.485 -34.963,-4.812 -47.076,-7.473c-9.921,-2.179 -36.113,-11.002 -42.215,-1.818c0,0 0,5.682 0,7.125c20.856,4.7 45.806,8.229 61.796,10.679c32.634,7 65.268,12 99.535,9c24.476,-2 60.374,-14 84.849,-8c-17.949,-19 -42.425,-15 -71.795,-11z" fill="#FEF8E7"/>
   </g>
   <g id="svg_15" opacity="0.1">
    <path id="svg_16" d="m337.687,65.584c-20.338,-9.333 -39.751,-19.333 -65.637,-16.666c-22.188,2 -80.04,28.536 -134.048,23.333c-29.337,-2.826 -36.979,-5.333 -56.393,-19.333c-13.867,-9.334 -71.72,-26.664 -80.965,-26.664c0,0 -0.088,12.44 -0.165,27.645l0.007,-0.565c0,0 42.171,9.708 80.433,30.408c65.176,35.258 106.315,14.591 135.898,3.258c0,0 -21.263,30.333 -62.864,33.667c-53.776,4.309 -113.827,-30.796 -153.582,-33.749c-0.007,13.184 0.057,22.89 0.273,21.486c24.345,-4.65 31.972,1.85 92.293,23.35c79.358,28.285 123.11,-32.167 165.636,-41.5c32.999,-7.224 46.938,-5.42 75.878,4.667c66.951,23.334 151.022,7.718 158.549,-11.333c-44.449,6.666 -143.098,-12.398 -155.313,-18.004z" fill="#FEF8E7"/>
   </g>
  </g>
  <path id="svg_17" d="m0.124,86.89c0.082,0.008 0.166,0.02 0.248,0.028c0.003,-10.107 0.038,-22.253 0.077,-33.019l-0.325,32.991z" fill="#FEF8E7"/>
  <polygon id="svg_18" points="720.333,323.903 719.25,249.91 418.66,339.173 319.297,285.805 196.899,332.057 100.373,287.603   100.373,349.214 720,382.833 " fill="#D8C0CB"/>
  <polygon id="svg_19" points="318.89,285.402 260.671,348.88 168.991,364.864 196.899,332.057 " fill="#E5D3DC"/>
  <path stroke="null" id="svg_20" d="m500.62887,281.20008c0,0 0.11451,-0.00519 0,0c-8.12216,0.33008 -40.53548,22.20247 -81.97261,42.04664c-22.0886,10.57809 -48.41829,16.06591 -78.46089,8.07655c-43.63042,-11.60258 -66.67432,12.70077 -100.99,19.72273c-106.52994,21.79765 -125.38535,-67.71182 -244.20737,-67.0527l0,188.4947l554.17502,0c-4.96429,-16.22887 -36.06226,-146.16884 -48.54415,-191.28791z" fill="#8085B4"/>
  <path id="svg_21" d="m370.661,351.207l49.965,-30.454c0,0 -11.639,8.115 -36.603,11.486l-13.362,18.968z" fill="#747AB0"/>
  <path id="svg_22" d="m216.512,370.079l47.441,-27.368c0,0 -11.839,5.839 -28.507,7.447l-18.934,19.921z" fill="#747AB0"/>
  <path id="svg_23" d="m610.416,331.296c-10.401,-0.599 -20.668,-3.403 -30.565,-7.563c-40.63,-17.078 -69.687,-41.453 -81.732,-42.532c1.665,3.887 11.05,55.914 23.942,105.8c38.668,-2.377 66.273,-25.819 88.355,-55.705z" fill="#747AB0"/>
  <path stroke="null" id="svg_24" d="m632.74,328.892c-7.454,2.146 -14.923,2.83 -22.324,2.404c-22.082,29.886 -49.688,53.328 -88.355,55.704c0.087,0.335 0.174,0.672 0.26,1.005c2.933,11.316 5.765,21.703 8.316,30.195c4.466,15.911 9.127,31.652 13.878,47.288l175.485,0l0,-121.724c0,0 -35.078,-29.898 -87.26,-14.872z" fill="#656CA3"/>
  <path id="svg_75" d="m175.868,413.214c69.743,31.612 157.798,49.784 229.799,11.784c0,0 -60.799,49.111 -140.799,17.216c0,0 98.799,38.118 223,-14.824c0,0 -104,58.824 -197,44.552c0,0 -69,-10.728 -114,-33.728c-33.848,-17.3 -124,-89 -124,-89s71.963,40.866 123,64z" fill="#645880"/>
  <path id="svg_76" d="m0,324c5,0 42.538,-4.024 100.373,39.842l-100.373,-12.891l0,-26.951z" fill="#645880"/>
  <path id="svg_77" d="m379.835,474.174c0,0 53.915,-6.924 77.332,-21.544c4.117,-2.57 -32.833,21.544 -50,21.544s-27.332,0 -27.332,0z" fill="#645880"/>
  <path id="svg_78" d="m720,382.833c-4.935,-0.809 -35.166,-18.439 -99.333,15.5l99.333,10.448l0,-25.948z" fill="#645880"/>
  <path id="svg_120" d="m0,349.311c5,0 62.254,-6.749 105,33.189c0,0 -59.178,-40.568 -105,-18.658l0,-14.531z" fill="#2D2843"/>
  <path id="svg_186" d="m143.666,503.999c0,0 14.772,-17.096 12.687,-36.608c-2.087,-19.513 7.89,25.002 -4.293,36.608l-8.394,0z" fill="#361F22"/>
  <path id="svg_187" d="m159.931,503.312c0,0 7.785,-12.307 6.472,-26.213c-1.313,-13.906 4.49,17.781 -1.954,26.151l-4.518,0.062z" fill="#361F22"/>
  <g id="svg_213">
   <path id="svg_214" d="m243.348,266.38c0,0 -2.625,-6.417 -10.5,-1.168c0,0 2.843,-14.585 10.5,1.168z" fill="#B094A0"/>
   <path id="svg_215" d="m243.348,265.358c0,0 4.156,-7.353 16.625,-3.571c0,0 -14.656,-16.189 -16.625,3.571z" fill="#B094A0"/>
  </g>
  <g id="svg_216" opacity="0.8">
   <path id="svg_217" d="m243.682,155.535c0,0 -2.625,-6.417 -10.5,-1.168c0,0 2.843,-14.585 10.5,1.168z" fill="#B094A0"/>
   <path id="svg_218" d="m243.682,154.513c0,0 4.156,-7.353 16.625,-3.571c0,0 -14.657,-16.19 -16.625,3.571z" fill="#B094A0"/>
  </g>
  <g id="svg_219">
   <path id="svg_220" d="m276.014,227.253c0,0 -3.218,-7.864 -12.867,-1.431c-0.001,0 3.484,-17.871 12.867,1.431z" fill="#B094A0"/>
   <path id="svg_221" d="m276.014,226.002c0,0 5.092,-9.009 20.372,-4.377c0,0 -17.96,-19.838 -20.372,4.377z" fill="#B094A0"/>
  </g>
  <path id="svg_223" d="m51.703,503.999c0,0 -21.341,-16.589 -18.326,-35.522s-11.398,24.261 6.201,35.522l12.125,0z" fill="#331C19"/>
  <path id="svg_228" d="m33.401,503.999c0,0 -10.47,-13.912 -7.149,-28.737c2.396,-10.702 -10.34,19.781 2.684,28.737l4.465,0z" fill="#331C19"/>
 </g>
</svg>