<svg width="720" height="503.99899999999997" xmlns="http://www.w3.org/2000/svg">
 <symbol id="New_Symbol" viewBox="-0.763 -0.763 1.526 1.525">
  <path fill="#FFFFFF" d="m0.763,0c0,-0.421 -0.342,-0.762 -0.763,-0.762s-0.763,0.341 -0.763,0.762s0.342,0.763 0.763,0.763s0.763,-0.343 0.763,-0.763z" id="svg_1"/>
 </symbol>

 <g>
  <title>Layer 1</title>
  <g id="svg_213">
   <path fill="#B094A0" d="m490.348,276.38c0,0 -2.625,-6.417 -10.5,-1.168c0,0 2.843,-14.585 10.5,1.168z" id="svg_214"/>
   <path fill="#B094A0" d="m490.348,275.358c0,0 4.156,-7.353 16.625,-3.571c0,0 -14.656,-16.189 -16.625,3.571z" id="svg_215"/>
  </g>
  <g opacity="0.8" id="svg_216">
   <path fill="#B094A0" d="m147.682,119.535c0,0 -2.625,-6.417 -10.5,-1.168c0,0 2.843,-14.585 10.5,1.168z" id="svg_217"/>
   <path fill="#B094A0" d="m147.682,118.513c0,0 4.156,-7.353 16.625,-3.571c0,0 -14.657,-16.19 -16.625,3.571z" id="svg_218"/>
  </g>
  <g id="svg_219">
   <path fill="#B094A0" d="m524.014,140.253c0,0 -3.218,-7.864 -12.867,-1.431c-0.001,0 3.484,-17.871 12.867,1.431z" id="svg_220"/>
   <path fill="#B094A0" d="m524.014,139.002c0,0 5.092,-9.009 20.372,-4.377c0,0 -17.96,-19.838 -20.372,4.377z" id="svg_221"/>
  </g>
 </g>
</svg>