<svg width="720" height="503.999" xmlns="http://www.w3.org/2000/svg">
 <symbol viewBox="-0.763 -0.763 1.526 1.525" id="New_Symbol">
  <path id="svg_1" d="m0.763,0c0,-0.421 -0.342,-0.762 -0.763,-0.762s-0.763,0.341 -0.763,0.762s0.342,0.763 0.763,0.763s0.763,-0.343 0.763,-0.763z" fill="#FFFFFF"/>
 </symbol>

 <g>
  <title>Layer 1</title>
  <g id="svg_6" opacity="0.2">
   <path id="svg_7" d="m688.113,107.381c-10.237,-1.44 -39.782,-12.04 -46.334,-15.667c-4.136,-2.29 -11.897,-6.43 -16.667,-5.333c4.727,-2.627 15.252,-1.084 19.018,0.001c6.169,1.777 38.562,4.521 49.316,2.072c8.145,-1.854 17.463,-5.314 23.454,-11.353c0.424,-0.427 0.793,-0.841 1.129,-1.249l0,-15.47c-16.455,19.564 -59.723,16.948 -80.75,14.32c-35,-6 -63,1 -92,23c28,-14 81,-5 107,11c10.899,6.812 47.764,18.712 65.75,12.027l0,-17.105c-8.758,4.849 -20.755,5.046 -29.916,3.757z" fill="#FEF8E7"/>
  </g>
  <path id="svg_17" d="m0.124,86.89c0.082,0.008 0.166,0.02 0.248,0.028c0.003,-10.107 0.038,-22.253 0.077,-33.019l-0.325,32.991z" fill="#FEF8E7"/>
  <path id="svg_24" d="m632.74,328.892c-7.454,2.146 -14.923,2.83 -22.324,2.404c-22.082,29.886 -49.688,53.328 -88.355,55.704c0.087,0.335 0.174,0.672 0.26,1.005c2.933,11.316 5.765,21.703 8.316,30.195c4.466,15.911 9.127,31.652 13.878,47.288l175.485,0l0,-121.724c0,0 -35.078,-29.898 -87.26,-14.872z" fill="#656CA3"/>
  <g id="svg_25">
   <path id="svg_26" d="m121.416,346.208c10,-5.333 21.333,4 28.667,9.333c13.334,10 55.165,30.109 64.872,30.109c14.725,0 52.462,-28.109 71.795,-24.109c17.333,3.334 31.333,4 48.667,1.334c17.999,-3.334 25.999,2 41.999,8.666c15.334,6.667 67.454,22.085 76.763,23.041c23.822,2.447 49.373,-11.083 56.039,-11.749c21.133,-1.922 42.383,7.661 48.939,8.317c13.333,0.667 21.667,-16.035 33.667,-19.369c14.667,-3.333 29.511,3.703 44.177,1.037c-8.666,1.333 -24.918,12.057 -32.251,17.39c-8.667,5.333 -18,9.333 -28,12.667c-42,14.666 -84,16.666 -128.667,14c-58.667,-3.334 -116.666,-13.334 -176,-12c-34.666,0.666 -74.666,-0.667 -107.333,-12.667c-11.333,-4 -24.667,-11.333 -32,-20.667c-3.333,-4.666 -15.333,-23.333 -10.667,-24.666" fill="#5E5F91"/>
  </g>
  <g id="svg_27">
   <g id="svg_28">
    <path id="svg_29" d="m203.705,398.213l5.126,-19.99l1.874,18.284l6.462,-29.407l3.822,26.115l6.178,-15.803l4.773,15.66l3.246,-22.993l6.522,18.069l3.959,-12.036l4.833,11.602l3.925,-22.375l6.246,22.736c0,0 -6.414,32.255 -56.966,10.138z" fill="#504370"/>
    <polygon id="svg_30" points="275.99,380.006 279.096,365.339 282.844,378.223   " fill="#504370"/>
    <polygon id="svg_31" points="293.791,372.672 295.202,358.005 296.905,370.889   " fill="#504370"/>
    <polygon id="svg_32" points="324.269,370.079 325.68,355.413 327.383,368.296   " fill="#504370"/>
    <polygon id="svg_33" points="372.659,380.006 374.071,365.339 375.774,378.223   " fill="#504370"/>
    <polygon id="svg_34" points="375.774,378.223 377.529,362.746 379.835,380.815   " fill="#504370"/>
    <polygon id="svg_35" points="302.017,372.818 304.597,341.866 309.394,369.982   " fill="#504370"/>
    <polygon id="svg_36" points="354.169,378.223 356.749,347.271 361.546,375.386   " fill="#504370"/>
    <polygon id="svg_37" points="306.674,378.223 311.403,347.271 317.109,374.459   " fill="#504370"/>
    <polygon id="svg_38" points="397.55,392.888 402.279,361.936 407.986,389.124   " fill="#504370"/>
    <polygon id="svg_39" points="402.768,396.291 407.497,365.339 413.203,392.528   " fill="#504370"/>
    <polygon id="svg_40" points="390.456,398.052 395.188,367.1 400.893,394.288   " fill="#504370"/>
    <polygon id="svg_41" points="432.211,405.962 436.941,375.011 442.646,402.199   " fill="#504370"/>
    <polygon id="svg_42" points="440.643,410.958 445.373,380.006 451.078,407.194   " fill="#504370"/>
    <polygon id="svg_43" points="438.583,410.958 443.313,380.006 449.02,407.194   " fill="#504370"/>
    <polygon id="svg_44" points="448.959,410.562 453.69,388.476 459.396,407.876   " fill="#504370"/>
    <polygon id="svg_45" points="426.355,397.386 429.826,380.815 435.167,398.052   " fill="#504370"/>
    <polygon id="svg_46" points="311.891,382.576 316.621,351.624 322.327,378.812   " fill="#504370"/>
    <polygon id="svg_47" points="347.422,382.576 352.151,351.624 357.857,378.812   " fill="#504370"/>
    <polygon id="svg_48" points="360.226,388.148 364.955,357.196 370.661,384.385   " fill="#504370"/>
    <polygon id="svg_49" points="383.022,385.555 387.753,354.603 393.459,385.555   " fill="#504370"/>
   </g>
   <polygon id="svg_50" points="597.361,379.273 600.832,362.703 606.173,379.939  " fill="#504370"/>
   <polygon id="svg_51" points="585.032,388.147 589.763,357.195 595.468,384.384  " fill="#504370"/>
   <g id="svg_52">
    <polygon id="svg_53" points="510.217,404.057 511.629,389.39 515.362,404.865   " fill="#504370"/>
    <polygon id="svg_54" points="513.332,402.273 515.087,386.797 517.393,404.866   " fill="#504370"/>
    <polygon id="svg_55" points="491.727,402.273 494.307,371.321 500.25,405.962   " fill="#504370"/>
    <polygon id="svg_56" points="535.107,416.938 539.837,385.986 545.544,413.175   " fill="#504370"/>
    <polygon id="svg_57" points="540.325,420.342 545.055,389.39 550.761,416.579   " fill="#504370"/>
    <polygon id="svg_58" points="528.014,422.103 532.745,391.15 538.45,418.339   " fill="#504370"/>
    <polygon id="svg_59" points="484.979,406.627 489.709,375.675 495.415,405.962   " fill="#504370"/>
    <polygon id="svg_60" points="497.783,412.199 502.513,381.247 508.219,408.436   " fill="#504370"/>
    <polygon id="svg_61" points="520.58,409.605 525.311,378.653 531.017,409.605   " fill="#504370"/>
   </g>
  </g>
  <path id="svg_62" d="m717.543,353.379c0,0 -39.832,-28 -104.559,15c-53.982,35.863 -80.963,33.988 -113.52,36c-64.727,4 -96.592,-24 -163.309,-36c-43.173,-7.766 -64.818,12.236 -98.177,19.001c-103.562,21 -131.851,-113.973 -237.404,-103.001l0,218.199l716.968,0l0,-149.199l0.001,0z" fill="#5A4E7A"/>
  <g id="svg_63">
   <path id="svg_64" d="m551.821,412.086c-0.031,-0.132 -0.062,-0.264 -0.093,-0.393l-4.307,4.881c0,0 4.001,-5.885 3.869,-6.423c-0.398,-1.622 -0.799,-3.209 -1.191,-4.722c-0.194,-0.745 -3.703,7.73 -3.898,6.99c-0.191,-0.727 3.272,-8.468 3.272,-8.468c-3.699,-13.816 -7.487,-26.029 -7.487,-23.757c0,4.092 -7.428,36.061 -7.428,36.061l3.252,13.899l-4.437,-8.183l-0.431,4.091c-0.63,3.354 -0.943,6.553 -1.015,9.588c1.558,8.426 4.849,16.572 9.012,23.974c4.477,-15.866 8.949,-31.351 10.882,-47.538z" fill="#303236"/>
   <path id="svg_65" d="m556.2,433.602c-0.55,-4.149 -2.521,-13.659 -4.379,-21.516c-2.068,17.318 -6.251,31.124 -10.881,47.539c-4.163,-7.401 -7.454,-15.548 -9.012,-23.974c-0.265,11.332 2.895,20.351 6.009,26.425l13.898,0c2.553,-7.919 5.533,-19.644 4.365,-28.474z" fill="#2A2930"/>
  </g>
  <g id="svg_66">
   <path id="svg_67" d="m533.134,437.304c-0.031,-0.132 -0.062,-0.264 -0.093,-0.393l-4.307,4.881c0,0 4.001,-5.885 3.869,-6.423c-0.398,-1.622 -0.799,-3.209 -1.191,-4.722c-0.194,-0.745 -3.703,7.73 -3.898,6.99c-0.191,-0.727 3.272,-8.468 3.272,-8.468c-3.699,-13.816 -7.487,-26.029 -7.487,-23.757c0,4.092 -7.428,36.061 -7.428,36.061l3.252,13.899l-4.437,-8.183l-0.431,4.091c-0.63,3.354 -0.943,6.553 -1.015,9.588c1.558,8.426 4.849,16.572 9.012,23.974c4.477,-15.866 8.948,-31.351 10.882,-47.538z" fill="#3B3D42"/>
   <path id="svg_68" d="m537.513,458.819c-0.55,-4.149 -2.521,-13.659 -4.379,-21.516c-2.068,17.318 -6.251,31.124 -10.881,47.539c-4.163,-7.401 -7.454,-15.548 -9.012,-23.974c-0.265,11.332 2.895,20.351 6.009,26.425l13.898,0c2.552,-7.918 5.533,-19.644 4.365,-28.474z" fill="#383640"/>
  </g>
  <g id="svg_69">
   <path id="svg_70" d="m575.12,423.822c-0.031,-0.132 -0.062,-0.264 -0.093,-0.393l-4.307,4.881c0,0 4.001,-5.885 3.869,-6.423c-0.398,-1.622 -0.799,-3.209 -1.191,-4.722c-0.194,-0.745 -3.703,7.73 -3.898,6.99c-0.191,-0.727 3.272,-8.468 3.272,-8.468c-3.699,-13.816 -7.487,-26.029 -7.487,-23.757c0,4.092 -7.428,36.061 -7.428,36.061l3.252,13.899l-4.437,-8.183l-0.431,4.091c-0.63,3.354 -0.943,6.553 -1.015,9.588c1.558,8.426 4.849,16.572 9.012,23.974c4.477,-15.866 8.949,-31.35 10.882,-47.538z" fill="#3B3D42"/>
   <path id="svg_71" d="m579.499,445.338c-0.55,-4.149 -2.521,-13.659 -4.379,-21.516c-2.068,17.318 -6.251,31.124 -10.881,47.539c-4.163,-7.401 -7.454,-15.548 -9.012,-23.974c-0.265,11.332 2.895,20.351 6.009,26.425l13.898,0c2.553,-7.918 5.533,-19.644 4.365,-28.474z" fill="#383640"/>
  </g>
  <g id="svg_72">
   <path id="svg_73" d="m604.995,399.375c-0.031,-0.132 -0.062,-0.264 -0.093,-0.393l-4.307,4.881c0,0 4.001,-5.885 3.869,-6.423c-0.398,-1.622 -0.799,-3.209 -1.191,-4.722c-0.194,-0.745 -3.703,7.73 -3.898,6.99c-0.191,-0.727 3.272,-8.468 3.272,-8.468c-3.699,-13.816 -7.487,-26.029 -7.487,-23.757c0,4.092 -7.428,36.061 -7.428,36.061l3.252,13.899l-4.437,-8.183l-0.431,4.091c-0.63,3.354 -0.943,6.553 -1.015,9.588c1.558,8.426 4.849,16.572 9.012,23.974c4.477,-15.866 8.949,-31.351 10.882,-47.538z" fill="#3B3D42"/>
   <path id="svg_74" d="m609.374,420.891c-0.55,-4.149 -2.521,-13.659 -4.379,-21.516c-2.068,17.318 -6.251,31.124 -10.881,47.539c-4.163,-7.401 -7.454,-15.548 -9.012,-23.974c-0.265,11.332 2.895,20.351 6.009,26.425l13.898,0c2.553,-7.919 5.533,-19.644 4.365,-28.474z" fill="#383640"/>
  </g>
  <path id="svg_75" d="m175.868,413.214c69.743,31.612 157.798,49.784 229.799,11.784c0,0 -60.799,49.111 -140.799,17.216c0,0 98.799,38.118 223,-14.824c0,0 -104,58.824 -197,44.552c0,0 -69,-10.728 -114,-33.728c-33.848,-17.3 -124,-89 -124,-89s71.963,40.866 123,64z" fill="#645880"/>
  <path id="svg_76" d="m0,324c5,0 42.538,-4.024 100.373,39.842l-100.373,-12.891l0,-26.951z" fill="#645880"/>
  <path id="svg_77" d="m379.835,474.174c0,0 53.915,-6.924 77.332,-21.544c4.117,-2.57 -32.833,21.544 -50,21.544s-27.332,0 -27.332,0z" fill="#645880"/>
  <path id="svg_78" d="m720,382.833c-4.935,-0.809 -35.166,-18.439 -99.333,15.5l99.333,10.448l0,-25.948z" fill="#645880"/>
  <g id="svg_79">
   <path id="svg_80" d="m355.056,441.364c-0.031,-0.132 -0.062,-0.264 -0.092,-0.393l-4.307,4.881c0,0 4,-5.885 3.87,-6.423c-0.399,-1.622 -0.799,-3.209 -1.192,-4.722c-0.194,-0.745 -3.703,7.73 -3.898,6.99c-0.191,-0.727 3.272,-8.468 3.272,-8.468c-3.699,-13.816 -7.487,-26.029 -7.487,-23.757c0,4.092 -7.428,36.061 -7.428,36.061l3.252,13.899l-4.437,-8.183l-0.431,4.091c-0.63,3.354 -0.943,6.553 -1.015,9.588c1.558,8.426 4.849,16.572 9.012,23.974c4.476,-15.866 8.948,-31.35 10.881,-47.538z" fill="#3B3D42"/>
   <path id="svg_81" d="m359.435,462.88c-0.549,-4.149 -2.521,-13.659 -4.379,-21.516c-2.068,17.318 -6.25,31.124 -10.88,47.539c-4.163,-7.401 -7.454,-15.548 -9.012,-23.974c-0.265,11.332 2.895,20.351 6.009,26.425l13.899,0c2.55,-7.918 5.531,-19.644 4.363,-28.474z" fill="#383640"/>
  </g>
  <g id="svg_82">
   <path id="svg_83" d="m291.306,443.913c-0.031,-0.132 -0.062,-0.264 -0.093,-0.393l-4.307,4.881c0,0 4.001,-5.885 3.869,-6.423c-0.398,-1.622 -0.799,-3.209 -1.191,-4.722c-0.194,-0.745 -3.703,7.73 -3.898,6.99c-0.191,-0.727 3.272,-8.468 3.272,-8.468c-3.699,-13.816 -7.487,-26.029 -7.487,-23.757c0,4.092 -7.428,36.061 -7.428,36.061l3.252,13.899l-4.437,-8.183l-0.431,4.091c-0.63,3.354 -0.943,6.553 -1.015,9.588c1.558,8.426 4.849,16.572 9.012,23.974c4.477,-15.866 8.949,-31.35 10.882,-47.538z" fill="#3B3D42"/>
   <path id="svg_84" d="m295.685,465.429c-0.55,-4.149 -2.521,-13.659 -4.379,-21.516c-2.068,17.318 -6.251,31.124 -10.881,47.539c-4.163,-7.401 -7.454,-15.548 -9.012,-23.974c-0.265,11.332 2.895,20.351 6.009,26.425l13.898,0c2.553,-7.919 5.533,-19.644 4.365,-28.474z" fill="#383640"/>
  </g>
  <g id="svg_85">
   <path id="svg_86" d="m267.607,423.823c-0.031,-0.132 -0.062,-0.264 -0.093,-0.393l-4.307,4.881c0,0 4.001,-5.885 3.869,-6.423c-0.398,-1.622 -0.799,-3.209 -1.191,-4.722c-0.194,-0.745 -3.703,7.73 -3.898,6.99c-0.191,-0.727 3.272,-8.468 3.272,-8.468c-3.699,-13.816 -7.487,-26.029 -7.487,-23.757c0,4.092 -7.428,36.061 -7.428,36.061l3.252,13.899l-4.437,-8.183l-0.431,4.091c-0.63,3.354 -0.943,6.553 -1.015,9.588c1.558,8.426 4.849,16.572 9.012,23.974c4.477,-15.866 8.949,-31.35 10.882,-47.538z" fill="#3B3D42"/>
   <path id="svg_87" d="m271.986,445.339c-0.55,-4.149 -2.521,-13.659 -4.379,-21.516c-2.068,17.318 -6.251,31.124 -10.881,47.539c-4.163,-7.401 -7.454,-15.548 -9.012,-23.974c-0.265,11.332 2.895,20.351 6.009,26.425l13.898,0c2.553,-7.918 5.533,-19.644 4.365,-28.474z" fill="#383640"/>
  </g>
  <g id="svg_88">
   <path id="svg_89" d="m383.011,455.88c-0.03,-0.125 -0.06,-0.25 -0.087,-0.372l-4.083,4.626c0,0 3.792,-5.578 3.668,-6.088c-0.378,-1.538 -0.758,-3.042 -1.129,-4.476c-0.186,-0.706 -3.511,7.327 -3.695,6.626c-0.182,-0.688 3.101,-8.026 3.101,-8.026c-3.507,-13.097 -7.097,-24.673 -7.097,-22.52c0,3.879 -7.04,34.182 -7.04,34.182l3.082,13.175l-4.206,-7.756l-0.407,3.878c-0.598,3.18 -0.895,6.211 -0.963,9.088c1.478,7.986 4.597,15.709 8.542,22.725c4.242,-15.042 8.481,-29.718 10.314,-45.062z" fill="#3B3D42"/>
   <path id="svg_90" d="m387.161,476.273c-0.521,-3.933 -2.39,-12.947 -4.15,-20.394c-1.961,16.415 -5.925,29.502 -10.314,45.062c-3.945,-7.016 -7.064,-14.738 -8.542,-22.725c-0.25,10.741 2.744,19.29 5.696,25.048l13.175,0c2.417,-7.505 5.243,-18.62 4.135,-26.991z" fill="#383640"/>
  </g>
  <g id="svg_91">
   <g id="svg_92">
    <path id="svg_93" d="m345.533,491.463l-67.902,-0.835l14.9,-83.892l34.501,-0.462l18.501,85.189zm-64.33,-3.792l60.599,0.745l-17.181,-79.108l-29.569,0.396l-13.849,77.967z" fill="#3D3555"/>
   </g>
   <g id="svg_94">
    <rect id="svg_95" height="3.459" width="40.067" fill="#3D3555" y="426.135" x="290.372"/>
   </g>
   <g id="svg_96">
    <rect id="svg_97" height="3.459" width="49.559" fill="#3D3555" y="447.636" x="285.672"/>
   </g>
   <g id="svg_98">
    <g id="svg_99">
     <rect id="svg_100" height="1.999" width="49.746" fill="#3D3555" transform="matrix(0.9018,0.4322,-0.4322,0.9018,221.0502,-91.9427) " y="439.345" x="287.928"/>
    </g>
    <g id="svg_101">
     <rect id="svg_102" height="49.746" width="1.999" fill="#3D3555" transform="matrix(0.4323,0.9017,-0.9017,0.4323,572.0676,-29.413) " y="414.755" x="308.394"/>
    </g>
   </g>
   <g id="svg_103">
    <g id="svg_104">
     <rect id="svg_105" height="1.999" width="54.941" fill="#3D3555" transform="matrix(0.9202,0.3913,-0.3913,0.9202,206.0385,-85.6627) " y="461.664" x="285.713"/>
    </g>
    <g id="svg_106">
     <rect id="svg_107" height="54.942" width="1.999" fill="#3D3555" transform="matrix(0.3913,0.9203,-0.9203,0.3913,613.4286,-3.478) " y="434.477" x="308.344"/>
    </g>
   </g>
   <g id="svg_108">
    <g id="svg_109">
     <rect id="svg_110" height="2" width="41.433" fill="#3D3555" transform="matrix(0.8548,0.5189,-0.5189,0.8548,262.6584,-100.9064) " y="417.954" x="290.946"/>
    </g>
    <g id="svg_111">
     <rect id="svg_112" height="41.433" width="2" fill="#3D3555" transform="matrix(0.5192,0.8547,-0.8547,0.5192,506.0265,-62.9654) " y="397.521" x="307.973"/>
    </g>
   </g>
   <g id="svg_113">
    <rect id="svg_114" height="17.108" width="34.562" fill="#3D3555" y="388.476" x="293.17"/>
   </g>
   <g id="svg_115">
    <rect id="svg_116" height="4.739" width="43.919" fill="#3D3555" y="404.866" x="287.904"/>
   </g>
   <g id="svg_117">
    <polygon id="svg_118" points="310.588,374.962 281.019,390.703 340.065,390.703   " fill="#3D3555"/>
   </g>
  </g>
  <polygon id="svg_119" points="130.687,362.746 135.416,331.794 141.122,358.982 " fill="#52476F"/>
  <path id="svg_120" d="m0,349.311c5,0 62.254,-6.749 105,33.189c0,0 -59.178,-40.568 -105,-18.658l0,-14.531z" fill="#2D2843"/>
  <g id="svg_121">
   <path id="svg_122" d="m230.266,409.41c-0.043,-0.187 -0.088,-0.373 -0.131,-0.558l-6.105,6.919c0,0 5.671,-8.341 5.484,-9.103c-0.565,-2.301 -1.132,-4.55 -1.688,-6.695c-0.274,-1.056 -5.249,10.96 -5.526,9.909c-0.271,-1.029 4.64,-12.003 4.64,-12.003c-5.245,-19.585 -10.614,-36.898 -10.614,-33.676c0,5.8 -10.53,51.116 -10.53,51.116l4.61,19.704l-6.29,-11.6l-0.61,5.8c-0.892,4.754 -1.336,9.288 -1.438,13.592c2.208,11.942 6.873,23.492 12.774,33.982c6.344,-22.49 12.682,-44.44 15.424,-67.387z" fill="#303236"/>
   <path id="svg_123" d="m236.473,439.909c-0.779,-5.882 -3.573,-19.361 -6.207,-30.499c-2.741,22.947 -9.08,44.896 -15.424,67.389c-5.902,-10.49 -10.567,-22.04 -12.774,-33.982c-0.375,16.062 4.104,28.847 8.517,37.458l19.702,0c3.616,-11.227 7.842,-27.849 6.186,-40.366z" fill="#2A2930"/>
  </g>
  <g id="svg_124">
   <path id="svg_125" d="m196.899,368.18c-0.043,-0.187 -0.088,-0.373 -0.131,-0.558l-6.105,6.919c0,0 5.671,-8.341 5.484,-9.103c-0.565,-2.301 -1.132,-4.55 -1.688,-6.695c-0.274,-1.056 -5.249,10.96 -5.526,9.909c-0.271,-1.029 4.64,-12.003 4.64,-12.003c-5.245,-19.585 -10.614,-36.898 -10.614,-33.676c0,5.8 -10.53,51.116 -10.53,51.116l4.61,19.704l-6.29,-11.6l-0.61,5.8c-0.892,4.754 -1.336,9.288 -1.438,13.592c2.208,11.942 6.873,23.492 12.774,33.982c6.344,-22.491 12.683,-44.44 15.424,-67.387z" fill="#303236"/>
   <path id="svg_126" d="m203.106,398.679c-0.779,-5.882 -3.573,-19.361 -6.207,-30.499c-2.741,22.947 -9.08,44.896 -15.424,67.389c-5.902,-10.49 -10.567,-22.04 -12.774,-33.982c-0.375,16.062 4.104,28.847 8.517,37.458l19.702,0c3.617,-11.228 7.843,-27.85 6.186,-40.366z" fill="#2A2930"/>
  </g>
  <g id="svg_127">
   <path id="svg_128" d="m158.619,351.207c-0.043,-0.187 -0.088,-0.373 -0.131,-0.558l-6.105,6.919c0,0 5.671,-8.341 5.484,-9.103c-0.565,-2.301 -1.132,-4.55 -1.688,-6.695c-0.274,-1.056 -5.249,10.96 -5.526,9.909c-0.271,-1.029 4.64,-12.003 4.64,-12.003c-5.245,-19.585 -10.614,-36.898 -10.614,-33.676c0,5.8 -10.53,51.116 -10.53,51.116l4.61,19.704l-6.29,-11.6l-0.61,5.8c-0.892,4.754 -1.336,9.288 -1.438,13.592c2.208,11.942 6.873,23.492 12.774,33.982c6.344,-22.49 12.682,-44.44 15.424,-67.387z" fill="#303236"/>
   <path id="svg_129" d="m164.826,381.706c-0.779,-5.882 -3.573,-19.361 -6.207,-30.499c-2.741,22.947 -9.08,44.896 -15.424,67.389c-5.902,-10.49 -10.567,-22.04 -12.774,-33.982c-0.375,16.062 4.104,28.847 8.517,37.458l19.702,0c3.616,-11.227 7.842,-27.849 6.186,-40.366z" fill="#2A2930"/>
  </g>
  <g id="svg_130">
   <path id="svg_131" d="m69.142,294.716c-0.043,-0.187 -0.088,-0.373 -0.131,-0.558l-6.105,6.919c0,0 5.671,-8.341 5.484,-9.103c-0.565,-2.301 -1.132,-4.55 -1.688,-6.695c-0.274,-1.056 -5.249,10.96 -5.526,9.909c-0.271,-1.029 4.64,-12.003 4.64,-12.003c-5.245,-19.585 -10.614,-36.898 -10.614,-33.676c0,5.8 -10.53,51.116 -10.53,51.116l4.61,19.704l-6.29,-11.6l-0.61,5.8c-0.892,4.754 -1.336,9.288 -1.438,13.592c2.208,11.942 6.873,23.492 12.774,33.982c6.344,-22.491 12.682,-44.44 15.424,-67.387z" fill="#303236"/>
   <path id="svg_132" d="m75.349,325.215c-0.779,-5.882 -3.573,-19.361 -6.207,-30.499c-2.741,22.947 -9.08,44.896 -15.424,67.389c-5.902,-10.49 -10.567,-22.04 -12.774,-33.982c-0.375,16.062 4.104,28.847 8.517,37.458l19.702,0c3.616,-11.227 7.842,-27.85 6.186,-40.366z" fill="#2A2930"/>
  </g>
  <g id="svg_133">
   <path id="svg_134" d="m40.821,291.384c-0.043,-0.187 -0.088,-0.373 -0.131,-0.558l-6.105,6.919c0,0 5.671,-8.341 5.484,-9.103c-0.565,-2.301 -1.132,-4.55 -1.688,-6.695c-0.274,-1.056 -5.249,10.96 -5.526,9.909c-0.271,-1.029 4.64,-12.003 4.64,-12.003c-5.245,-19.585 -10.614,-36.898 -10.614,-33.676c0,5.8 -10.53,51.116 -10.53,51.116l4.61,19.704l-6.29,-11.6l-0.61,5.8c-0.892,4.754 -1.336,9.288 -1.438,13.592c2.208,11.942 6.873,23.492 12.774,33.982c6.344,-22.491 12.683,-44.44 15.424,-67.387z" fill="#303236"/>
   <path id="svg_135" d="m47.028,321.883c-0.779,-5.882 -3.573,-19.361 -6.207,-30.499c-2.741,22.947 -9.08,44.896 -15.424,67.389c-5.902,-10.49 -10.567,-22.04 -12.774,-33.982c-0.375,16.062 4.104,28.847 8.517,37.458l19.702,0c3.617,-11.228 7.843,-27.85 6.186,-40.366z" fill="#2A2930"/>
  </g>
  <path id="svg_136" d="m140.118,478.2c-12,-19 -10,-40 -23,-58c-17,-25 -26,-51 -49,-70c-5.614,-5.613 -14.179,-5.323 -21.21,-8.103c-13.262,-2.633 -28.54,-4.097 -46.682,-4.097l0,165.999l166.434,0c-10.041,-6.406 -19.061,-14.717 -26.542,-25.799z" fill="#2D2843"/>
  <path id="svg_137" d="m601.724,411.818c-2.895,2.788 -5.729,5.83 -8.478,9.182c-41,50 -204.648,65.765 -312,40c-147.167,-35.32 -148.16,-101.796 -234.318,-118.902c7.031,2.779 15.596,2.489 21.21,8.103c23,19 32,45 49,70c13,18 11,39 23,58c7.48,11.082 16.501,19.393 26.542,25.799l355.886,0c37.913,-17.049 62.29,-54 79.158,-92.182z" fill="#3D3555"/>
  <path id="svg_138" d="m107.082,411.199c65.396,39.836 133.039,82.937 254.464,66.819c0,0 -94.297,35.583 -169.838,-5.779c-3.546,-1.932 81.418,41.692 223.152,12.328c0,0 -23.99,12.22 -80.474,19.246l-190.72,-0.814c0,0 -30.364,-17.354 -72.243,-45.642c-31.501,-21.277 -12.196,-75.31 35.659,-46.158z" fill="#2D2843"/>
  <path id="svg_139" d="m720.226,396c0,0 -68.804,-32.049 -118.522,15.818c-16.867,38.182 -41.244,75.133 -79.157,92.181l197.68,0l0,-107.999l-0.001,0z" fill="#2D2843"/>
  <g id="svg_140">
   <polygon id="svg_141" points="128.333,503.999 52.5,503.999 52.5,376.112 52.5,0 128.333,0 128.333,401.667  " fill="#361F22"/>
   <polygon id="svg_142" points="42.999,437.94 52.5,376.112 52.5,503.999 42.999,503.999  " fill="#331C19"/>
   <path id="svg_143" d="m117.955,503.999l25.711,0l0,-14.06c-8.783,-2.265 -17.256,-5.604 -25.958,-8.263c0.154,13.916 0.247,22.323 0.247,22.323z" fill="#361F22"/>
   <path id="svg_144" d="m128.333,322.334l0,-322.334l-21.251,0l0,107.667l7.271,17.332c0,0 -14,83.893 0,95.616c0.409,0.343 2.608,194.237 3.354,261.062c8.703,2.658 17.175,5.998 25.958,8.263l0,-100.887l-15.332,-66.719z" fill="#42262A"/>
   <polygon id="svg_145" points="52.5,0 64.333,0 72.062,370.324 74.5,408.781 73.665,503.999 52.5,503.999  " fill="#331C19"/>
   <path id="svg_146" d="m109.383,165.032c0,0 55.162,-1.333 64.549,-33.22c6.568,-22.312 52.064,-15.376 52.068,-12.812c0,0 -39.27,-7.499 -44.5,20.228c-2.323,12.313 -33,34.772 -73.234,43.782c-3.207,0.718 1.117,-17.978 1.117,-17.978z" fill="#361F22"/>
   <path id="svg_147" d="m100.373,81.333c0,0 43.033,-4 54.627,-19.667c12.396,-16.749 30.333,-7.768 31.334,-10.667c0,0 -25.667,-7.667 -36.482,6.333c-9.385,12.147 -49.479,13.075 -49.479,13.075l0,10.926z" fill="#361F22"/>
   <path id="svg_148" d="m61.836,49.94c0,0 -25.595,-2.86 -32.492,-14.062c-7.373,-11.975 -18.042,-5.554 -18.637,-7.626c0,0 15.267,-5.481 21.699,4.528c5.582,8.685 29.429,9.348 29.429,9.348l0,7.812l0.001,0z" fill="#331C19"/>
   <path id="svg_149" d="m90.945,469.492c1,-72.218 2.633,-233.052 -2.577,-237.824c-15.704,-14.385 2.705,-55.998 -3.962,-71.331s-5.407,-36.669 -5.407,-36.669l0,-123.668l-14.666,0l7.629,365.799l1.036,47.367l-0.631,38.252c5.193,7.156 11.457,13.702 18.578,18.074z" fill="#38242C"/>
   <path id="svg_150" d="m72.368,451.418l-0.868,52.581l18.917,0c0,0 0.237,-13.51 0.528,-34.507c-7.121,-4.372 -13.385,-10.918 -18.577,-18.074z" fill="#331C19"/>
   <g id="svg_151">
    <path id="svg_152" d="m166.01,157.585c0,0 13.17,11.979 43.91,2.435c0,0 -25.129,16.444 -52.716,6.161c-19.277,-7.186 8.806,-8.596 8.806,-8.596z" fill="#361F22"/>
    <path id="svg_153" d="m184.459,164.255c0,0 -3.235,-5.943 2.726,-11.423c4.881,-4.487 4.053,-1.454 4.188,4.524c0.126,5.556 -6.914,6.899 -6.914,6.899z" fill="#283027"/>
    <path id="svg_154" d="m179.501,169.566c0,0 6.757,-0.355 9.13,7.386c1.944,6.339 -0.436,4.283 -5.888,1.828c-5.066,-2.281 -3.242,-9.214 -3.242,-9.214z" fill="#283027"/>
    <path id="svg_155" d="m195.207,165.576c0,0 4.708,-2.755 9.272,1.91c3.739,3.82 1.275,3.228 -3.538,3.488c-4.473,0.242 -5.734,-5.398 -5.734,-5.398z" fill="#283027"/>
   </g>
   <g id="svg_156">
    <path id="svg_157" d="m147.148,68.743c0,0 11.987,10.902 39.965,2.216c0,0 -22.871,14.967 -47.98,5.607c-17.546,-6.541 8.015,-7.823 8.015,-7.823z" fill="#361F22"/>
    <path id="svg_158" d="m163.939,74.813c0,0 -2.944,-5.409 2.481,-10.397c4.442,-4.084 3.688,-1.324 3.812,4.118c0.115,5.057 -6.293,6.279 -6.293,6.279z" fill="#283027"/>
    <path id="svg_159" d="m159.427,79.647c0,0 6.15,-0.323 8.311,6.722c1.769,5.77 -0.396,3.898 -5.359,1.664c-4.613,-2.076 -2.952,-8.386 -2.952,-8.386z" fill="#283027"/>
    <path id="svg_160" d="m173.722,76.016c0,0 4.285,-2.508 8.439,1.738c3.403,3.477 1.16,2.938 -3.22,3.175c-4.071,0.219 -5.219,-4.913 -5.219,-4.913z" fill="#283027"/>
   </g>
   <g id="svg_161">
    <path id="svg_162" d="m150.113,156.009c0,0 -0.834,-9.446 15.438,-17.875c0,0 -17.968,2.861 -22.398,19.211c-3.097,11.426 6.96,-1.336 6.96,-1.336z" fill="#361F22"/>
    <path id="svg_163" d="m145.287,151.712c0,0 -4.089,-2.604 -2.253,-8.106c1.502,-4.506 2.035,-2.319 4.194,1.381c2.007,3.439 -1.941,6.725 -1.941,6.725z" fill="#2D302C"/>
    <path id="svg_164" d="m156.653,141.976c0,0 -2.779,-3.188 0.114,-7.338c2.368,-3.401 2.274,-1.439 3.168,2.19c0.833,3.372 -3.282,5.148 -3.282,5.148z" fill="#2D302C"/>
   </g>
   <g id="svg_165">
    <path id="svg_166" d="m151.018,56.697c0,0 -0.935,-10.577 17.287,-20.015c0,0 -20.12,3.203 -25.081,21.512c-3.468,12.793 7.794,-1.497 7.794,-1.497z" fill="#361F22"/>
    <path id="svg_167" d="m145.614,51.885c0,0 -4.579,-2.916 -2.523,-9.077c1.682,-5.046 2.278,-2.597 4.696,1.546c2.248,3.852 -2.173,7.531 -2.173,7.531z" fill="#283027"/>
    <path id="svg_168" d="m158.342,40.983c0,0 -3.112,-3.569 0.128,-8.217c2.652,-3.809 2.546,-1.611 3.548,2.452c0.931,3.776 -3.676,5.765 -3.676,5.765z" fill="#283027"/>
   </g>
   <g id="svg_169">
    <path id="svg_170" d="m37.055,41.9c0,0 -6.334,8.521 -26.22,3.454c0,0 17.157,10.986 33.037,0.611c11.098,-7.25 -6.817,-4.065 -6.817,-4.065z" fill="#361F22"/>
    <path id="svg_171" d="m37.892,49.086c0,0 1.481,5.223 -4.151,8.457c-4.611,2.65 -3.427,0.424 -2.479,-4.277c0.882,-4.371 6.63,-4.18 6.63,-4.18z" fill="#283027"/>
    <path id="svg_172" d="m21.137,48.766c0,0 -0.049,4.735 -5.56,6.052c-4.513,1.082 -2.973,-0.489 -1.019,-4.19c1.815,-3.441 6.579,-1.862 6.579,-1.862z" fill="#283027"/>
   </g>
  </g>
  <g id="svg_173">
   <polygon id="svg_174" points="658.053,503.999 697.867,503.999 697.867,376.112 697.867,0 658.053,0 658.053,401.667  " fill="#361F22"/>
   <polygon id="svg_175" points="702.854,405.667 697.867,376.112 697.867,503.999 702.854,503.999  " fill="#331C19"/>
   <path id="svg_176" d="m663.504,503.999l-13.5,0l0,-14.06c4.611,-2.265 9.061,-5.604 13.629,-8.263c-0.081,13.916 -0.129,22.323 -0.129,22.323z" fill="#361F22"/>
   <path id="svg_177" d="m658.053,322.334l0,-322.334l11.158,0l0,107.666l-3.816,17.332c0,0 7.349,83.893 0,95.616c-0.215,0.343 -1.369,194.237 -1.762,261.062c-4.568,2.658 -9.018,5.998 -13.629,8.263l0,-100.886l8.049,-66.719z" fill="#42262A"/>
   <polygon id="svg_178" points="697.867,0 691.654,0 687.597,370.324 686.316,408.781 686.755,503.999 697.867,503.999  " fill="#331C19"/>
   <path id="svg_179" d="m672.734,81.334c0,0 -22.594,-4 -28.681,-19.668c-6.507,-16.748 -15.926,-7.768 -16.45,-10.666c0,0 13.475,-7.666 19.152,6.333c4.928,12.147 25.979,13.075 25.979,13.075l0,10.926z" fill="#361F22"/>
   <path id="svg_180" d="m677.684,469.492c-0.526,-72.218 -1.382,-233.052 1.352,-237.824c8.246,-14.385 -1.42,-55.997 2.081,-71.33c3.499,-15.333 2.838,-36.67 2.838,-36.67l0,-123.668l7.7,0l-4.006,365.799l-0.543,47.367l0.33,38.252c-2.726,7.156 -6.015,13.702 -9.752,18.074z" fill="#38242C"/>
   <path id="svg_181" d="m687.436,451.418l0.457,52.581l-9.934,0c0,0 -0.123,-13.51 -0.275,-34.507c3.737,-4.372 7.026,-10.918 9.752,-18.074z" fill="#331C19"/>
   <g id="svg_182">
    <path id="svg_183" d="m646.144,56.697c0,0 0.491,-10.578 -9.075,-20.016c0,0 10.563,3.203 13.169,21.512c1.819,12.794 -4.094,-1.496 -4.094,-1.496z" fill="#361F22"/>
    <path id="svg_184" d="m648.981,51.885c0,0 2.403,-2.916 1.325,-9.076c-0.885,-5.046 -1.196,-2.597 -2.466,1.547c-1.179,3.85 1.141,7.529 1.141,7.529z" fill="#2D302C"/>
    <path id="svg_185" d="m642.299,40.982c0,0 1.635,-3.568 -0.066,-8.217c-1.393,-3.809 -1.337,-1.611 -1.863,2.452c-0.49,3.777 1.929,5.765 1.929,5.765z" fill="#283027"/>
   </g>
  </g>
  <path id="svg_186" d="m143.666,503.999c0,0 14.772,-17.096 12.687,-36.608c-2.087,-19.513 7.89,25.002 -4.293,36.608l-8.394,0z" fill="#361F22"/>
  <path id="svg_187" d="m159.931,503.312c0,0 7.785,-12.307 6.472,-26.213c-1.313,-13.906 4.49,17.781 -1.954,26.151l-4.518,0.062z" fill="#361F22"/>
  <g id="svg_188">
   <g id="svg_189">
    <path id="svg_190" d="m166.13,442.427c8.099,17.776 12.853,39.62 8.666,58.897c-0.205,0.942 1.241,1.344 1.446,0.398c4.28,-19.705 -0.549,-41.904 -8.817,-60.054c-0.401,-0.878 -1.693,-0.115 -1.295,0.759l0,0z" fill="#361F22"/>
   </g>
   <path id="svg_191" d="m174.384,437.178c-1.025,0 -1.974,0.291 -2.808,0.763c2.388,2.518 5.377,3.78 8.502,4.414c-0.292,-2.901 -2.715,-5.177 -5.694,-5.177z" fill="#42262A"/>
   <path id="svg_192" d="m171.576,437.94c-1.75,0.987 -2.944,2.842 -2.944,4.989c0,3.178 2.577,5.755 5.752,5.755s5.752,-2.577 5.752,-5.755c0,-0.197 -0.038,-0.383 -0.058,-0.575c-3.125,-0.633 -6.114,-1.896 -8.502,-4.414z" fill="#361F22"/>
   <path id="svg_193" d="m159.682,441.191c-2.665,0.561 -4.667,2.922 -4.667,5.752c0,1.701 0.734,3.223 1.888,4.297c1.988,-2.818 3.242,-6.005 2.779,-10.049z" fill="#42262A"/>
   <path id="svg_194" d="m160.896,441.063c-0.417,0 -0.823,0.046 -1.214,0.128c0.463,4.044 -0.792,7.23 -2.779,10.049c1.05,0.976 2.446,1.586 3.993,1.586c3.248,0 5.882,-2.634 5.882,-5.883c0,-3.246 -2.634,-5.88 -5.882,-5.88z" fill="#361F22"/>
   <path id="svg_195" d="m165.989,455.653c-3.21,0.393 -5.705,3.097 -5.705,6.413c0,2.397 1.313,4.469 3.246,5.593c1.804,-3.51 2.899,-7.375 2.459,-12.006z" fill="#42262A"/>
   <path id="svg_196" d="m166.777,455.573c-0.27,0 -0.527,0.048 -0.788,0.08c0.439,4.631 -0.655,8.496 -2.459,12.006c0.959,0.558 2.058,0.901 3.247,0.901c3.586,0 6.494,-2.908 6.494,-6.494s-2.908,-6.493 -6.494,-6.493z" fill="#361F22"/>
   <path id="svg_197" d="m180.74,473.849c-2.158,0.812 -3.7,2.881 -3.7,5.319c0,3.148 2.552,5.703 5.701,5.703c2.158,0 4.013,-1.213 4.981,-2.982c-3.169,-1.858 -5.679,-4.828 -6.982,-8.04z" fill="#361F22"/>
   <path id="svg_198" d="m182.741,473.468c-0.707,0 -1.377,0.145 -2.001,0.381c1.304,3.212 3.813,6.183 6.982,8.04c0.444,-0.812 0.72,-1.729 0.72,-2.721c0,-3.146 -2.552,-5.7 -5.701,-5.7z" fill="#42262A"/>
   <path id="svg_199" d="m170.706,432.626c-0.523,-2.712 -2.904,-4.762 -5.769,-4.762c-1.399,0 -2.666,0.509 -3.676,1.324c3.054,2.974 6.144,3.892 9.445,3.438z" fill="#42262A"/>
   <path id="svg_200" d="m161.261,429.188c-1.334,1.078 -2.205,2.708 -2.205,4.558c0,3.247 2.633,5.882 5.881,5.882c3.248,0 5.882,-2.635 5.882,-5.882c0,-0.384 -0.043,-0.757 -0.113,-1.12c-3.301,0.454 -6.391,-0.464 -9.445,-3.438z" fill="#361F22"/>
   <path id="svg_201" d="m179.04,454.564c-2.7,0.924 -4.655,3.457 -4.655,6.471c0,3.795 3.077,6.87 6.869,6.87c3.187,0 5.844,-2.184 6.619,-5.13c-3.798,-1.022 -7.291,-4.426 -8.833,-8.211z" fill="#361F22"/>
   <path id="svg_202" d="m181.253,454.167c-0.779,0 -1.515,0.159 -2.214,0.397c1.542,3.784 5.036,7.188 8.833,8.211c0.146,-0.559 0.25,-1.135 0.25,-1.74c0,-3.793 -3.077,-6.868 -6.869,-6.868z" fill="#42262A"/>
   <path id="svg_203" d="m169.42,473.099c-2.821,0.366 -5.009,2.753 -5.009,5.673c0,1.7 0.753,3.213 1.927,4.265c2.629,-2.245 4.168,-5.217 3.082,-9.938z" fill="#42262A"/>
   <path id="svg_204" d="m170.159,473.024c-0.253,0 -0.495,0.043 -0.739,0.074c1.086,4.722 -0.453,7.693 -3.082,9.938c1.017,0.911 2.348,1.482 3.821,1.482c3.173,0 5.746,-2.573 5.746,-5.747c0,-3.171 -2.573,-5.747 -5.746,-5.747z" fill="#361F22"/>
  </g>
  <path id="svg_205" d="m697.727,267.394l10.419,42c-0.766,2.902 -15.472,-26.497 -16.229,-23.583c-1.537,5.922 -0.57,2.012 -2.13,8.36c-0.517,2.107 13.583,31.481 13.583,31.481l-16.856,-19.103c-0.12,0.51 -0.242,1.025 -0.363,1.538c6.304,52.765 19.498,103.618 33.851,155.018l0,-271.543c-4.909,13.93 -13.19,41.898 -22.275,75.832z" fill="#262925"/>
  <path id="svg_206" d="m686.149,308.088c-0.085,0.361 -0.171,0.729 -0.257,1.091l0,193.921c0.066,0.209 0.135,0.424 0.201,0.631l33.907,0l0,-40.625c-14.353,-51.4 -27.547,-102.253 -33.851,-155.018z" fill="#1B1C1A"/>
  <g id="svg_207">
   <path id="svg_208" d="m44.001,399.31c-0.277,-11.88 -1.507,-24.399 -3.968,-37.524l-1.685,-16.012l-17.366,32.026l16.523,-37.894c0,0 -32.868,-141.617 -32.868,-157.63c0,-3.313 -1.726,0.012 -4.638,8.278l0,271.544c2.88,10.315 5.806,20.651 8.733,31.03c16.296,-28.963 29.174,-60.847 35.269,-93.818z" fill="#262925"/>
   <path id="svg_209" d="m44.001,399.31c-6.095,32.972 -18.973,64.855 -35.268,93.819c-2.927,-10.379 -5.853,-20.715 -8.733,-31.03l0,40.625l20.487,0c12.183,-23.775 24.548,-59.069 23.514,-103.414z" fill="#1D211F"/>
  </g>
  <g id="svg_210">
   <path id="svg_211" d="m677.636,308.356c-0.121,-0.513 -0.244,-1.028 -0.363,-1.538l-16.856,19.103c0,0 15.658,-23.026 15.143,-25.133c-1.56,-6.349 -3.125,-12.56 -4.662,-18.48c-0.758,-2.915 -14.491,30.257 -15.257,27.354c-0.749,-2.842 12.81,-33.138 12.81,-33.138c-14.479,-54.071 -29.302,-101.868 -29.302,-92.973c0,16.013 -29.073,141.123 -29.073,141.123l12.729,54.4l-17.366,-32.026l-1.685,16.012c-2.461,13.125 -3.69,25.645 -3.968,37.524c6.094,32.972 18.973,64.855 35.268,93.819c17.511,-62.096 35.012,-122.693 42.582,-186.047z" fill="#2D302C"/>
   <path id="svg_212" d="m694.771,392.558c-2.15,-16.236 -9.864,-53.453 -17.135,-84.201c-7.569,63.354 -25.07,123.95 -42.584,186.048c-16.295,-28.964 -29.174,-60.848 -35.268,-93.819c-1.035,44.346 11.331,79.64 23.514,103.414l54.394,0c9.986,-30.995 21.652,-76.884 17.079,-111.442z" fill="#202423"/>
  </g>
  <polygon id="svg_222" points="575.017,402.272 579.747,371.321 585.452,398.51 " fill="#52476F"/>
  <path id="svg_223" d="m51.703,503.999c0,0 -21.341,-16.589 -18.326,-35.522s-11.398,24.261 6.201,35.522l12.125,0z" fill="#331C19"/>
  <polygon id="svg_224" points="569.798,398.309 574.528,367.356 580.234,394.545 " fill="#52476F"/>
  <g id="svg_225">
   <path id="svg_226" d="m604.732,407.461c-0.059,-0.249 -0.118,-0.499 -0.176,-0.746l-8.171,9.26c0,0 7.59,-11.162 7.34,-12.183c-0.756,-3.078 -1.515,-6.089 -2.26,-8.959c-0.367,-1.413 -7.024,14.667 -7.396,13.261c-0.363,-1.378 6.209,-16.063 6.209,-16.063c-7.019,-26.211 -14.204,-49.381 -14.204,-45.068c0,7.762 -14.093,68.409 -14.093,68.409l6.17,26.37l-8.418,-15.524l-0.816,7.762c-1.193,6.362 -1.789,12.431 -1.924,18.189c2.954,15.983 9.197,31.439 17.096,45.479c8.491,-30.102 16.974,-59.477 20.643,-90.187z" fill="#2C3030"/>
   <path id="svg_227" d="m613.039,448.277c-1.043,-7.871 -4.782,-25.911 -8.307,-40.816c-3.669,30.71 -12.152,60.085 -20.643,90.187c-7.898,-14.04 -14.142,-29.496 -17.096,-45.479c-0.502,21.497 5.492,38.605 11.398,50.13l26.367,0c4.843,-15.025 10.498,-37.27 8.281,-54.022z" fill="#202423"/>
  </g>
  <path id="svg_228" d="m33.401,503.999c0,0 -10.47,-13.912 -7.149,-28.737c2.396,-10.702 -10.34,19.781 2.684,28.737l4.465,0z" fill="#331C19"/>
 </g>
</svg>