<?xml version="1.0" encoding="iso-8859-1"?>
<!-- Generator: Adobe Illustrator 19.0.0, SVG Export Plug-In . SVG Version: 6.00 Build 0)  -->
<svg version="1.1" id="Layer_1" xmlns="http://www.w3.org/2000/svg" xmlns:xlink="http://www.w3.org/1999/xlink" x="0px" y="0px"
	 viewBox="0 0 512.001 512.001" style="enable-background:new 0 0 512.001 512.001;" xml:space="preserve">
<g>
	<g>
		<path d="M503.032,394.775h-76.738l82.927-82.624c1.686-1.681,2.636-3.963,2.638-6.346c0.002-2.382-0.941-4.665-2.625-6.35
			l-43.004-43.03l43.01-43.108c3.496-3.504,3.492-9.177-0.008-12.678l-83.372-83.362l77.179-0.056c4.95,0,8.961-4.016,8.961-8.966
			V9.443c0-4.955-4.015-8.969-8.969-8.969h-98.812c-4.955,0-8.969,4.015-8.969,8.969v77.233L311.664,3.1
			c-1.681-1.681-3.963-2.627-6.344-2.626c-2.379,0.001-4.661,0.946-6.343,2.63l-43.001,43.037L212.935,3.1
			c-1.683-1.681-3.963-2.626-6.343-2.626s-4.66,0.946-6.343,2.627l-83.497,83.532V9.443c0-4.955-4.016-8.969-8.969-8.969H8.969
			C4.016,0.474,0,4.488,0,9.443v98.812c0,4.955,4.016,8.969,8.969,8.969h77.202L2.626,200.801C0.944,202.485,0,204.766,0,207.145
			s0.947,4.66,2.63,6.343l43.061,43.028L2.626,299.614c-1.684,1.685-2.629,3.972-2.625,6.354s0.954,4.665,2.643,6.347l82.891,82.462
			H8.969c-4.953,0-8.969,4.015-8.969,8.969v98.812c0,4.955,4.016,8.969,8.969,8.969h98.812c4.953,0,8.969-4.015,8.969-8.969v-76.726
			l83.517,83.085c1.75,1.74,4.037,2.611,6.326,2.611c2.294,0,4.589-0.874,6.34-2.624l43.085-43.048l43.046,43.046
			c1.752,1.751,4.047,2.626,6.343,2.626c2.29,0,4.58-0.872,6.331-2.615l83.512-83.207v76.852c0,4.955,4.015,8.969,8.969,8.969
			h98.812c4.955,0,8.969-4.015,8.969-8.969v-98.812C512.001,398.79,507.987,394.775,503.032,394.775z M490.195,305.784
			l-77.007,76.725v-72.92l40.372-40.464L490.195,305.784z M490.212,206.993l-36.662,36.746l-40.361-40.386v-73.374L490.212,206.993z
			 M413.188,18.411h80.874v80.882l-80.874,0.057V18.411z M305.326,22.129l77.221,77.213l-73.422-0.053l-40.464-40.465
			L305.326,22.129z M395.249,117.29v80.808h-80.874v-80.865L395.249,117.29z M206.595,22.128l36.703,36.703l-40.421,40.455h-73.409
			L206.595,22.128z M116.751,117.224h80.874v80.874h-80.874V117.224z M17.939,99.286V18.412h80.874v80.874H17.939z M21.654,207.139
			l77.158-77.187v73.401L58.37,243.827L21.654,207.139z M98.812,493.589H17.939v-80.874h80.874V493.589z M98.812,382.681
			l-77.145-76.745l36.712-36.74l40.433,40.402V382.681z M206.581,489.892l-77.579-77.177h73.876l40.455,40.455L206.581,489.892z
			 M116.751,394.777V314.85l80.869-0.001h0.005v79.928H116.751z M305.418,489.885l-36.71-36.71l40.413-40.38l73.73-0.062
			L305.418,489.885z M395.249,394.785l-80.874,0.068v-80.002h80.874V394.785z M400.498,296.911h-95.092
			c-4.955,0-8.969,4.015-8.969,8.969v94.232l-40.413,40.379l-40.461-40.46V305.88c0-2.379-0.945-4.659-2.627-6.343
			c-1.683-1.681-3.963-2.626-6.342-2.626l-95.099,0.001l-40.435-40.404l40.44-40.471h95.095c4.953,0,8.969-4.015,8.969-8.969v-95.1
			l40.418-40.452l40.455,40.455v95.097c0,4.955,4.015,8.969,8.969,8.969h95.095l40.378,40.401L400.498,296.911z M494.061,493.589
			h-80.874v-80.874h80.874V493.589z"/>
	</g>
</g>
<g>
</g>
<g>
</g>
<g>
</g>
<g>
</g>
<g>
</g>
<g>
</g>
<g>
</g>
<g>
</g>
<g>
</g>
<g>
</g>
<g>
</g>
<g>
</g>
<g>
</g>
<g>
</g>
<g>
</g>
</svg>
